<?xml version="1.0" standalone="no"?>
<svg xmlns:xlink="http://www.w3.org/1999/xlink" id="wave" style="transform:rotate(180deg); transition: 0.3s" viewBox="0 0 1440 100" version="1.1" xmlns="http://www.w3.org/2000/svg"><defs><linearGradient id="sw-gradient-0" x1="0" x2="0" y1="1" y2="0"><stop stop-color="rgba(255, 255, 255, 1)" offset="0%"/><stop stop-color="rgba(255, 255, 255, 1)" offset="100%"/></linearGradient></defs><path style="transform:translate(0, 0px); opacity:1" fill="url(#sw-gradient-0)" d="M0,20L60,21.7C120,23,240,27,360,23.3C480,20,600,10,720,18.3C840,27,960,53,1080,55C1200,57,1320,33,1440,21.7C1560,10,1680,10,1800,13.3C1920,17,2040,23,2160,35C2280,47,2400,63,2520,71.7C2640,80,2760,80,2880,78.3C3000,77,3120,73,3240,61.7C3360,50,3480,30,3600,25C3720,20,3840,30,3960,41.7C4080,53,4200,67,4320,70C4440,73,4560,67,4680,61.7C4800,57,4920,53,5040,46.7C5160,40,5280,30,5400,23.3C5520,17,5640,13,5760,25C5880,37,6000,63,6120,65C6240,67,6360,43,6480,43.3C6600,43,6720,67,6840,75C6960,83,7080,77,7200,70C7320,63,7440,57,7560,56.7C7680,57,7800,63,7920,61.7C8040,60,8160,50,8280,38.3C8400,27,8520,13,8580,6.7L8640,0L8640,100L8580,100C8520,100,8400,100,8280,100C8160,100,8040,100,7920,100C7800,100,7680,100,7560,100C7440,100,7320,100,7200,100C7080,100,6960,100,6840,100C6720,100,6600,100,6480,100C6360,100,6240,100,6120,100C6000,100,5880,100,5760,100C5640,100,5520,100,5400,100C5280,100,5160,100,5040,100C4920,100,4800,100,4680,100C4560,100,4440,100,4320,100C4200,100,4080,100,3960,100C3840,100,3720,100,3600,100C3480,100,3360,100,3240,100C3120,100,3000,100,2880,100C2760,100,2640,100,2520,100C2400,100,2280,100,2160,100C2040,100,1920,100,1800,100C1680,100,1560,100,1440,100C1320,100,1200,100,1080,100C960,100,840,100,720,100C600,100,480,100,360,100C240,100,120,100,60,100L0,100Z"/></svg>